<svg xmlns="http://www.w3.org/2000/svg" width="1280" height="400" viewBox="0 0 1280 400" fill="none" role="img" aria-label="Tenor — bonds that enforce their own rules">
  <title>Tenor</title>
  <defs>
    <pattern id="dg" width="24" height="24" patternUnits="userSpaceOnUse">
      <circle cx="1" cy="1" r="1" fill="#F2F1E9" fill-opacity="0.10"></circle>
    </pattern>
    <clipPath id="frame"><rect x="1" y="1" width="1278" height="398"></rect></clipPath>
  </defs>

  <rect x="0.5" y="0.5" width="1279" height="399" fill="#0A0A0A" stroke="#F2F1E9" stroke-opacity="0.28"></rect>
  <g clip-path="url(#frame)">
    <rect x="1" y="1" width="1278" height="398" fill="url(#dg)"></rect>

    <g stroke="#F2F1E9" stroke-opacity="0.35">
      <path d="M24 40 V24 H40"></path><path d="M1256 40 V24 H1240"></path>
      <path d="M24 360 V376 H40"></path><path d="M1256 360 V376 H1240"></path>
    </g>

    <rect x="72" y="66" width="7" height="7" fill="#3DD68C"></rect>
    <text x="90" y="74" font-family="Inter, 'Helvetica Neue', Arial, sans-serif" font-size="13" font-weight="600" letter-spacing="2.4" fill="#8C8C8C">COMPLIANCE-NATIVE SECONDARY MARKET · HEDERA ATS</text>

    <svg x="72" y="96" width="363" height="150" viewBox="292 290 955 395">
      <g fill="#F2F1E9"><path d="M466 323 Q466 311 456 315 L341 369 Q316 380 316 400 V499 Q316 518 336 532 L379 560 V600 C379 637 413 661 460 661 H524 Q537 661 537 648 V435 Q537 420 525 425 L380 490 V553 L337 525 Q321 513 340 503 L461 439 Q466 437 466 431 Z"/><path fill-rule="evenodd" d="M732 567 H595 C599 593 618 609 645 609 C665 609 680 602 690 587 H728 C715 624 685 644 644 644 C592 644 557 607 557 555 C557 503 592 466 643 466 C696 466 732 502 732 555 Z M595 538 H693 C687 513 668 499 644 499 C620 499 602 513 595 538 Z"/>
      <path d="M750 640 V470 H789 V493 C802 475 821 466 844 466 C886 466 911 494 911 539 V640 H871 V545 C871 516 858 501 834 501 C807 501 790 520 790 550 V640 Z"/>
      <path fill-rule="evenodd" d="M1018 466 C1072 466 1109 503 1109 555 C1109 607 1072 644 1018 644 C964 644 927 607 927 555 C927 503 964 466 1018 466 Z M1018 500 C987 500 967 522 967 555 C967 588 987 610 1018 610 C1049 610 1069 588 1069 555 C1069 522 1049 500 1018 500 Z"/>
      <path d="M1127 640 V470 H1166 V496 C1177 475 1198 463 1223 467 V507 C1190 499 1167 518 1167 550 V640 Z"/></g>
    </svg>

    <text x="74" y="290" font-family="'JetBrains Mono','SFMono-Regular',ui-monospace,Menlo,monospace" font-size="17" letter-spacing="0.2" fill="#F2F2F2">Bonds that enforce their own rules.</text>
    <text x="74" y="314" font-family="'JetBrains Mono','SFMono-Regular',ui-monospace,Menlo,monospace" font-size="12.5" letter-spacing="0.2" fill="#8C8C8C">Peer-to-peer listings settle atomically in USDC. The bond checks every fill; Tenor never takes custody.</text>

    <svg x="900" y="36" width="200" height="296" viewBox="296 294 261 387">
      <path d="M466 323 Q466 311 456 315 L341 369 Q316 380 316 400 V499 Q316 518 336 532 L379 560 V600 C379 637 413 661 460 661 H524 Q537 661 537 648 V435 Q537 420 525 425 L380 490 V553 L337 525 Q321 513 340 503 L461 439 Q466 437 466 431 Z" fill="#3DD68C" fill-opacity="0.06" stroke="#F2F1E9" stroke-opacity="0.85" stroke-width="2.2" stroke-linejoin="round"></path>
    </svg>
    <g stroke="#3DD68C" stroke-width="1.5">
      <path d="M834 246 H872 V184 H900" stroke-opacity="0.6"></path>
    </g>
    <circle cx="834" cy="246" r="2.5" fill="#3DD68C" fill-opacity="0.7"></circle>
    <circle cx="900" cy="184" r="4" fill="#3DD68C"></circle>

    <g stroke="#8C8C8C" stroke-opacity="0.75">
      <path d="M1130 44 H1192"></path><path d="M1130 332 H1192"></path>
      <path d="M1184 50 V326"></path>
    </g>
    <path d="M1184 44 L1181 52 H1187 Z" fill="#8C8C8C"></path>
    <path d="M1184 332 L1181 324 H1187 Z" fill="#8C8C8C"></path>
    <text x="1176" y="188" transform="rotate(-90 1176 188)" text-anchor="middle" font-family="'JetBrains Mono','SFMono-Regular',ui-monospace,Menlo,monospace" font-size="11" letter-spacing="1" fill="#8C8C8C">1 tx</text>

    <g stroke="#F2F1E9" stroke-opacity="0.35">
      <rect x="64.5" y="336.5" width="1151" height="47"></rect>
      <path d="M264.5 336.5 V383.5 M524.5 336.5 V383.5 M1004.5 336.5 V383.5"></path>
    </g>
    <g font-family="Inter, 'Helvetica Neue', Arial, sans-serif" font-size="8.5" font-weight="600" letter-spacing="1.4" fill="#8C8C8C">
      <text x="76" y="352">PROJECT</text>
      <text x="276" y="352">NETWORK</text>
      <text x="536" y="352">STANDARD</text>
      <text x="1016" y="352">LICENSE</text>
    </g>
    <g font-family="'JetBrains Mono','SFMono-Regular',ui-monospace,Menlo,monospace" font-size="12.5" letter-spacing="0.6" fill="#F2F1E9">
      <text x="76" y="372">TENOR</text>
      <text x="276" y="372" fill="#3DD68C">HEDERA TESTNET · 296</text>
      <text x="536" y="372">EIP-2535 DIAMOND · ERC-1400 HOLDS · HTS · HSS</text>
      <text x="1016" y="372">MIT</text>
    </g>
  </g>
</svg>
